<svg width="1464" height="148" viewBox="0 0 1464 148" fill="none" xmlns="http://www.w3.org/2000/svg">
<path d="M97.4297 103.008V74.4922H140.301V145H79.6562C64.8125 145 51.3685 142.298 39.3242 136.895C27.3451 131.426 17.9049 123.255 11.0039 112.383C4.10286 101.51 0.652344 88.1966 0.652344 72.4414C0.652344 61.3737 2.70312 51.5104 6.80469 42.8516C10.9714 34.1276 16.7005 26.901 23.9922 21.1719C31.349 15.3776 38.7708 10.7552 46.2578 7.30469C53.7448 3.78906 64.7799 1.64062 79.3633 0.859375C94.4674 1.64062 105.991 3.46354 113.934 6.32812C121.876 9.19271 129.884 14.401 137.957 21.9531L110.223 52.8125C105.535 48.9062 101.368 46.1068 97.7227 44.4141C94.0768 42.7214 88.0872 41.6146 79.7539 41.0938C71.681 42.1354 65.7565 43.8932 61.9805 46.3672C58.2044 48.8411 54.8841 52.0312 52.0195 55.9375C49.1549 59.8438 47.332 65.8333 46.5508 73.9062C47.332 81.9792 49.1549 87.6432 52.0195 90.8984C54.8841 94.1536 58.4648 96.8229 62.7617 98.9062C67.0586 100.99 71.681 102.292 76.6289 102.812C81.5768 103.333 88.5104 103.398 97.4297 103.008ZM132.488 145L178.875 3.98438H248.895L296.062 145H242.742L233.855 119.609H191.961L183.074 145H132.488ZM214.031 35.2344L193.816 91.0938H232.684L214.031 35.2344ZM294.207 145V3.98438H340.105V103.008H416.473V145H294.207ZM408.66 145L455.047 3.98438H525.066L572.234 145H518.914L510.027 119.609H468.133L459.246 145H408.66ZM490.203 35.2344L469.988 91.0938H508.855L490.203 35.2344ZM720.965 3.98438L669.207 74.4922L720.965 145H665.301L636.199 101.445L607.488 145H551.824L603.582 74.4922L551.824 3.98438H607.488L636.199 47.5391L665.301 3.98438H720.965ZM864.715 3.98438L803.191 93.2422V145H757.098V93.2422L695.574 3.98438H751.238L779.949 47.5391L809.051 3.98438H864.715ZM950.652 145V45.9766H921.355V3.98438H1033.86C1045.12 3.98438 1055.05 5.48177 1063.64 8.47656C1072.23 11.4714 1079.49 15.5078 1085.42 20.5859C1091.34 25.6641 1096.26 32.5326 1100.16 41.1914C1104.14 49.8503 1106.12 61.1133 1106.12 74.9805C1105.4 87.806 1103.26 98.7109 1099.68 107.695C1096.1 116.68 1091.34 123.776 1085.42 128.984C1079.49 134.193 1072.23 138.229 1063.64 141.094C1055.11 143.958 1044.4 145.26 1031.51 145H950.652ZM997.723 38.9453V109.844H1024.58C1030.63 109.844 1035.52 108.574 1039.23 106.035C1042.94 103.431 1045.96 100.143 1048.31 96.1719C1050.65 92.1354 1052.15 84.9089 1052.8 74.4922C1052.61 64.987 1051.27 57.9883 1048.8 53.4961C1046.39 48.9388 1043.26 45.3906 1039.42 42.8516C1035.58 40.2474 1030.57 38.9453 1024.38 38.9453H997.723ZM1111 3.98438H1156.9V145H1111V3.98438ZM1166.67 145V3.98438H1212.57L1254.56 56.7188V3.98438H1300.46V145H1254.56L1212.57 92.2656V145H1166.67ZM1463.35 75.2734C1463.35 90.7031 1460.12 103.854 1453.68 114.727C1447.23 125.599 1437.89 133.77 1425.65 139.238C1413.48 144.707 1398.93 147.441 1382 147.441C1365.07 147.441 1350.52 144.707 1338.35 139.238C1326.24 133.704 1317.06 125.566 1310.81 114.824C1304.56 104.017 1301.43 90.8333 1301.43 75.2734C1301.43 63.4896 1303.22 53.138 1306.8 44.2188C1310.39 35.2344 1315.63 27.6823 1322.53 21.5625C1329.43 15.4427 1337.89 10.8203 1347.92 7.69531C1357.94 4.50521 1369.3 2.91016 1382 2.91016C1398.86 2.91016 1413.41 5.70964 1425.65 11.3086C1437.89 16.8424 1447.23 25.0456 1453.68 35.918C1460.12 46.7253 1463.35 59.8438 1463.35 75.2734ZM1351.53 75.6641C1351.53 84.7135 1353.55 92.5911 1357.59 99.2969C1361.69 106.003 1369.73 109.355 1381.71 109.355C1390.95 109.355 1397.85 107.598 1402.41 104.082C1407.03 100.566 1409.9 96.5625 1411 92.0703C1412.18 87.513 1412.96 82.0443 1413.35 75.6641C1412.96 66.6146 1410.78 58.737 1406.8 52.0312C1402.83 45.2604 1394.47 41.875 1381.71 41.875C1361.59 41.875 1351.53 53.138 1351.53 75.6641Z" fill="#E0C849"/>
</svg>
